<?xml version="1.0" standalone="no"?>
<!DOCTYPE svg PUBLIC "-//W3C//DTD SVG 20010904//EN"
 "http://www.w3.org/TR/2001/REC-SVG-20010904/DTD/svg10.dtd">
<svg version="1.0" xmlns="http://www.w3.org/2000/svg"
 width="539.000000pt" height="539.000000pt" viewBox="0 0 539.000000 539.000000"
 preserveAspectRatio="xMidYMid meet">
<metadata>
Created by potrace 1.14, written by Peter Selinger 2001-2017
</metadata>
<g transform="translate(0.000000,539.000000) scale(0.100000,-0.100000)"
fill="#000000" stroke="none">
<path d="M2670 5342 c-8 -3 -52 -27 -98 -53 -45 -27 -85 -49 -88 -49 -3 0 -24
-13 -47 -28 -23 -15 -55 -34 -72 -42 -16 -8 -40 -23 -52 -34 -13 -11 -23 -16
-23 -11 0 4 -8 2 -17 -6 -10 -8 -38 -25 -63 -38 -25 -14 -88 -50 -140 -81 -52
-31 -120 -69 -150 -86 -30 -16 -57 -32 -60 -35 -3 -4 -27 -18 -55 -33 -27 -14
-72 -39 -100 -56 -27 -16 -56 -33 -63 -36 -8 -4 -80 -45 -160 -92 -81 -46
-167 -96 -192 -110 -25 -14 -46 -29 -48 -34 -2 -4 -11 -8 -21 -8 -9 0 -21 -4
-26 -9 -9 -9 -423 -249 -455 -264 -8 -4 -35 -20 -60 -35 -25 -15 -77 -45 -115
-66 -39 -22 -72 -42 -75 -45 -3 -3 -27 -18 -55 -33 l-50 -27 -3 -1350 -2
-1349 67 -38 c38 -21 70 -39 73 -39 3 0 25 -14 50 -30 62 -40 120 -73 153 -87
15 -7 27 -16 27 -20 0 -4 4 -8 9 -8 5 0 44 -20 85 -45 42 -25 81 -45 86 -45 6
0 10 -4 10 -10 0 -5 6 -10 14 -10 7 0 19 -7 26 -15 7 -8 16 -12 21 -9 5 3 9 0
9 -5 0 -6 7 -11 15 -11 8 0 15 -4 15 -10 0 -5 6 -10 13 -10 6 0 48 -21 92 -48
45 -26 94 -54 110 -62 17 -8 32 -18 35 -21 3 -3 31 -21 64 -38 32 -18 81 -46
108 -62 27 -16 52 -29 55 -29 4 0 14 -6 22 -14 9 -7 36 -24 61 -37 25 -13 48
-28 52 -34 4 -5 8 -6 8 -2 0 5 12 0 27 -11 41 -29 115 -72 136 -79 9 -3 17 -9
17 -14 0 -5 6 -9 13 -9 6 0 40 -18 75 -40 34 -22 67 -40 72 -40 6 0 10 -4 10
-10 0 -5 4 -9 9 -7 5 1 18 -4 28 -11 10 -7 86 -51 168 -99 83 -48 152 -91 153
-95 2 -4 8 -8 14 -8 5 0 42 -19 81 -42 40 -23 78 -43 86 -44 8 -2 17 -7 20
-11 3 -5 31 -24 61 -42 42 -26 58 -31 70 -23 16 12 168 100 235 137 22 12 74
42 115 67 41 24 113 66 160 93 47 27 88 54 92 60 4 5 8 6 8 2 0 -5 12 0 28 11
15 10 74 45 132 78 123 70 117 66 222 126 45 27 85 48 90 48 4 0 8 5 8 10 0 6
4 10 9 10 8 0 151 80 161 90 3 3 12 6 20 8 8 2 17 8 18 13 2 5 7 9 12 9 7 0
104 54 225 126 22 14 57 32 78 41 20 10 37 21 37 25 0 5 7 8 15 8 8 0 15 3 15
8 0 4 20 16 45 27 25 11 45 23 45 27 0 5 4 8 9 8 5 0 76 39 158 86 211 124
224 131 260 150 18 9 33 20 33 25 0 5 3 8 8 7 4 -1 22 4 40 12 l32 15 0 1341
0 1340 -32 17 c-18 9 -40 21 -48 27 -42 28 -172 100 -180 100 -6 0 -10 5 -10
10 0 6 -6 10 -14 10 -7 0 -19 7 -26 15 -7 8 -16 12 -21 9 -5 -3 -9 0 -9 5 0 6
-5 11 -10 11 -6 0 -36 16 -66 35 -30 19 -57 35 -60 35 -6 0 -133 74 -216 127
-21 12 -40 23 -42 23 -3 0 -66 36 -142 80 -75 44 -140 80 -145 80 -5 0 -9 5
-9 10 0 6 -4 10 -9 10 -6 0 -246 134 -321 180 -50 31 -172 100 -177 100 -3 0
-18 9 -34 21 -16 11 -29 17 -29 12 0 -4 -4 -3 -8 3 -6 9 -142 90 -372 222 -19
11 -95 54 -168 96 -146 84 -170 95 -192 88z m-143 -2665 c-2 -1876 -2 -1882
-22 -1879 -11 2 -22 7 -25 12 -3 4 -32 24 -65 45 -33 21 -62 42 -63 47 -2 4
-8 6 -13 2 -5 -3 -9 0 -9 5 0 6 -6 11 -14 11 -8 0 -16 4 -18 8 -3 9 -245 172
-255 172 -3 0 -23 14 -44 31 -21 17 -39 28 -39 24 0 -5 -9 1 -43 31 -7 5 -31
21 -54 34 -24 13 -43 27 -43 32 0 4 -4 8 -10 8 -5 0 -46 25 -90 55 -44 30 -85
55 -90 55 -4 0 -10 3 -12 8 -5 11 -296 202 -308 202 -5 0 -10 4 -10 9 0 7 -66
52 -139 96 -9 6 -31 20 -48 33 -17 12 -36 22 -42 22 -6 0 -11 3 -11 8 0 4 -27
24 -60 46 -33 21 -60 43 -61 50 -4 50 2 661 7 665 7 7 484 8 485 1 1 -3 2 -79
3 -170 1 -91 6 -172 11 -181 6 -8 26 -24 45 -35 19 -10 38 -23 42 -29 5 -7 8
-7 8 0 0 6 3 6 8 0 8 -13 100 -67 105 -63 2 2 11 -5 21 -14 10 -10 23 -18 31
-18 7 0 15 -4 17 -8 4 -10 164 -102 178 -102 5 0 10 -4 10 -9 0 -11 59 -36 67
-27 8 8 8 1675 0 1682 -3 3 -64 -17 -136 -45 -72 -28 -136 -51 -141 -51 -6 0
-10 110 -10 304 l0 304 66 41 c36 22 69 41 75 41 5 0 9 5 9 10 0 6 7 10 15 10
8 0 15 4 15 9 0 5 8 11 18 14 18 6 74 38 82 48 7 9 119 79 126 79 3 0 20 11
38 25 18 14 36 25 40 25 4 0 12 5 19 10 22 19 152 100 170 106 9 3 17 10 17
15 0 5 7 9 15 9 8 0 15 5 15 10 0 6 6 10 14 10 7 0 19 7 26 15 7 9 15 13 17
11 3 -3 14 4 26 14 11 11 23 17 28 15 4 -3 7 -852 6 -1888z m261 1866 c8 -7
18 -11 23 -8 5 4 9 1 9 -4 0 -6 4 -11 10 -11 5 0 32 -13 60 -30 27 -16 50 -26
50 -22 0 4 4 2 8 -4 6 -9 161 -96 237 -134 17 -8 33 -19 37 -25 4 -5 8 -574 8
-1264 0 -690 2 -1256 5 -1259 5 -5 47 16 160 77 33 19 78 43 100 55 22 11 43
26 47 31 4 6 8 6 8 2 0 -5 12 0 28 10 15 11 38 25 52 31 14 7 34 18 45 25 11
7 60 34 108 61 49 27 90 54 93 60 10 29 12 66 3 66 -6 0 -7 5 -4 11 9 13 10
123 1 137 -3 6 -3 13 2 16 5 3 7 24 5 48 -4 43 -4 49 -2 101 l0 27 276 -2 275
-3 0 -353 c1 -194 -1 -355 -4 -357 -13 -13 -211 -135 -219 -135 -5 0 -9 -4 -9
-10 0 -5 -5 -10 -11 -10 -6 0 -42 -20 -80 -45 -38 -25 -74 -45 -79 -45 -6 0
-10 -4 -10 -10 0 -5 -5 -10 -10 -10 -6 0 -41 -19 -78 -43 -37 -23 -76 -47 -87
-54 -11 -6 -78 -48 -148 -92 -71 -45 -133 -81 -138 -81 -5 0 -9 -4 -9 -10 0
-5 -6 -10 -13 -10 -7 0 -23 -9 -35 -20 -12 -11 -24 -20 -28 -20 -10 0 -108
-63 -116 -75 -4 -5 -8 -6 -8 -2 0 4 -19 -5 -42 -21 -24 -15 -77 -48 -118 -72
-41 -25 -77 -47 -80 -50 -3 -3 -52 -34 -110 -69 -58 -35 -108 -69 -112 -75 -4
-6 -8 -7 -8 -1 0 6 -3 6 -8 0 -4 -6 -18 -16 -32 -23 -14 -7 -40 -22 -58 -33
-18 -12 -36 -18 -39 -15 -5 5 -8 3566 -4 3753 1 17 5 21 19 16 9 -4 23 -13 30
-20z"/>
</g>
</svg>
